<svg width="0" height="0" class="hidden">
  <symbol version="1.0" xmlns="http://www.w3.org/2000/svg" viewBox="0 0 948 1280" id="loÑk">
    <path d="M452.2 6.1c-103.8 4.6-201 47.6-269.9 119.3-49.8 51.8-81 114.5-90.2 181.6-2.6 18.3-3.1 42.1-3.1 145.2V561H4.9l-2.4 2.5-2.5 2.4v685.2l2.5 2.4 2.4 2.5h931.8l2.1-2.3 2.2-2.3V565.9l-2.5-2.4-2.4-2.5H852V453.2c0-106.3-.6-130.8-3.5-149.9-10.2-68-40.8-128.8-90.5-179.7-31.8-32.7-64.8-56.5-106.4-77C604.1 23.2 546.3 8.4 495 6.5c-8-.3-17-.7-20-.9-3-.1-13.3.1-22.8.5zM497.1 124c56.1 5.5 106.8 25.5 147.4 58.3 9.4 7.5 28.2 26.4 35.6 35.7 24.5 30.7 40.5 68.7 44.9 106.5.6 5.6 1 51.5 1 122.8V561l-254.7-.2-254.8-.3V447c0-125 0-123.9 6.4-149.1 20.2-80 88.6-143.9 177.9-166.3 13-3.2 35.6-7 47.2-7.9 10.6-.8 39.6-.6 49.1.3z"></path>
   <symbol xmlns="http://www.w3.org/2000/svg" viewBox="0 0 378.94 378.94" id="heart">
    <path d="M348.151 54.514c-19.883-19.884-46.315-30.826-74.435-30.826-28.124 0-54.559 10.942-74.449 30.826l-9.798 9.8-9.798-9.8c-19.884-19.884-46.325-30.826-74.443-30.826-28.117 0-54.56 10.942-74.442 30.826-41.049 41.053-41.049 107.848 0 148.885l147.09 147.091a16.036 16.036 0 008.527 4.461 16.29 16.29 0 003.161.303c4.161 0 8.329-1.587 11.498-4.764l147.09-147.091c41.051-41.037 41.051-107.832-.001-148.885zm-22.996 125.89L189.47 316.091 53.782 180.404c-28.368-28.364-28.368-74.514 0-102.893 13.741-13.739 32.017-21.296 51.446-21.296 19.431 0 37.702 7.557 51.438 21.296l21.305 21.312c6.107 6.098 16.897 6.098 23.003 0l21.297-21.312c13.737-13.739 32.009-21.296 51.446-21.296 19.431 0 37.701 7.557 51.438 21.296 28.371 28.379 28.371 74.528 0 102.893z"></path>
  </symbol>
   <symbol xmlns="http://www.w3.org/2000/svg" viewBox="0 0 512 512" id="present">
    <path d="M32 271.692v192c0 17.664 14.368 32 32 32h160v-224H32zm448-128H378.752c7.264-4.96 13.504-9.888 17.856-14.304 25.824-25.952 25.824-68.192 0-94.144-25.088-25.28-68.8-25.216-93.856 0-13.888 13.92-50.688 70.592-45.6 108.448h-2.304c5.056-37.856-31.744-94.528-45.6-108.448-25.088-25.216-68.8-25.216-93.856 0-25.792 25.952-25.792 68.192-.032 94.144 4.384 4.416 10.624 9.344 17.888 14.304H32c-17.632 0-32 14.368-32 32v48c0 8.832 7.168 16 16 16h208v-64h64v64h208c8.832 0 16-7.168 16-16v-48c0-17.632-14.336-32-32-32zm-257.888-1.056s-1.344 1.056-5.92 1.056c-22.112 0-64.32-22.976-78.112-36.864-13.408-13.504-13.408-35.52 0-49.024 6.496-6.528 15.104-10.112 24.256-10.112 9.12 0 17.728 3.584 24.224 10.112 21.568 21.696 43.008 77.12 35.552 84.832zm73.664 1.056c-4.544 0-5.888-1.024-5.888-1.056-7.456-7.712 13.984-63.136 35.552-84.832 12.896-13.024 35.456-13.088 48.48 0 13.44 13.504 13.44 35.52 0 49.024-13.792 13.888-56 36.864-78.144 36.864zm-7.776 128v224h160c17.664 0 32-14.336 32-32v-192H288z"></path>
  </symbol>
</svg>
</svg>
